<svg width="48" height="48" viewBox="0 0 48 48" fill="none" xmlns="http://www.w3.org/2000/svg">
<mask id="mask0_1_330" style="mask-type:alpha" maskUnits="userSpaceOnUse" x="-1" y="0" width="50" height="49">
<rect width="48" height="48" transform="matrix(1 7.15495e-06 -2.98269e-05 1 0.000732422 0.000244141)" fill="#D9D9D9"/>
</mask>
<g mask="url(#mask0_1_330)">
<path d="M21.123 30.8159L33.9158 18.0234L32.5004 16.6079L21.123 27.9849L15.4232 22.2848L14.0077 23.7003L21.123 30.8159ZM24.0062 41.0004C21.5172 41.0004 19.177 40.528 16.9857 39.5833C14.7947 38.6386 12.8888 37.3566 11.2678 35.7373C9.64686 34.1179 8.36375 32.2136 7.41849 30.0243C6.47288 27.8352 6.00012 25.4961 6.0002 23.0067C6.00027 20.5177 6.47267 18.1776 7.4174 15.9863C8.36214 13.7953 9.64419 11.8893 11.2636 10.2683C12.883 8.64729 14.7873 7.36414 16.9767 6.41882C19.1657 5.47317 21.5049 5.00036 23.9942 5.00037C26.4832 5.00039 28.8234 5.47274 31.0147 6.41742C33.2057 7.36211 35.1116 8.64412 36.7326 10.2635C38.3535 11.8828 39.6366 13.7872 40.5819 15.9765C41.5275 18.1655 42.0003 20.5047 42.0002 22.994C42.0001 25.483 41.5277 27.8232 40.583 30.0145C39.6383 32.2055 38.3562 34.1115 36.7368 35.7325C35.1174 37.3535 33.2131 38.6366 31.0237 39.5819C28.8347 40.5276 26.4955 41.0004 24.0062 41.0004ZM23.9997 39.0004C28.4664 39.0004 32.2498 37.4504 35.3499 34.3505C38.45 31.2505 40.0001 27.4672 40.0002 23.0005C40.0003 18.5338 38.4504 14.7505 35.3505 11.6505C32.2506 8.55043 28.4673 7.0004 24.0007 7.00037C19.534 7.00034 15.7506 8.55031 12.6505 11.6503C9.55044 14.7503 8.00033 18.5336 8.0002 23.0003C8.00006 27.4669 9.54995 31.2503 12.6499 34.3503C15.7498 37.4503 19.5331 39.0003 23.9997 39.0004Z" fill="#108240"/>
</g>
</svg>
