<svg version="1.1" xmlns="http://www.w3.org/2000/svg" xmlns:xlink="http://www.w3.org/1999/xlink">

    <symbol viewBox="0 0 24 18" id="postgraduate-icon-arrow">
        <path d="M14.9535 18.0046L13.2671 16.2782L19.3779 10.1985H-0.000488281V7.81068H19.3779L13.2671 1.73095L14.9535 0.00457764L23.9995 9.00458L14.9535 18.0046Z" />
    </symbol>

    <symbol viewBox="0 0 24 25" id="postgraduate-icon-download">
        <path d="M12 15.8006L7.73075 11.5313L8.78475 10.4468L11.25 12.9121V4.51208H12.75V12.9121L15.2153 10.4468L16.2693 11.5313L12 15.8006ZM6.30775 19.5121C5.80258 19.5121 5.375 19.3371 5.025 18.9871C4.675 18.6371 4.5 18.2095 4.5 17.7043V14.9928H6V17.7043C6 17.7813 6.03208 17.8518 6.09625 17.9158C6.16025 17.98 6.23075 18.0121 6.30775 18.0121H17.6923C17.7692 18.0121 17.8398 17.98 17.9038 17.9158C17.9679 17.8518 18 17.7813 18 17.7043V14.9928H19.5V17.7043C19.5 18.2095 19.325 18.6371 18.975 18.9871C18.625 19.3371 18.1974 19.5121 17.6923 19.5121H6.30775Z" />
    </symbol>

    <symbol viewBox="0 0 24 25" id="postgraduate-icon-extlink">
        <path d="M5.30775 20.5121C4.80258 20.5121 4.375 20.3371 4.025 19.9871C3.675 19.6371 3.5 19.2095 3.5 18.7043V5.31983C3.5 4.81467 3.675 4.38708 4.025 4.03708C4.375 3.68709 4.80258 3.51208 5.30775 3.51208H11.6152V5.01208H5.30775C5.23075 5.01208 5.16025 5.04417 5.09625 5.10833C5.03208 5.17233 5 5.24283 5 5.31983V18.7043C5 18.7813 5.03208 18.8518 5.09625 18.9158C5.16025 18.98 5.23075 19.0121 5.30775 19.0121H18.6923C18.7692 19.0121 18.8398 18.98 18.9038 18.9158C18.9679 18.8518 19 18.7813 19 18.7043V12.3968H20.5V18.7043C20.5 19.2095 20.325 19.6371 19.975 19.9871C19.625 20.3371 19.1974 20.5121 18.6923 20.5121H5.30775ZM9.71925 15.3466L8.6655 14.2928L17.9462 5.01208H14V3.51208H20.5V10.0121H19V6.06584L9.71925 15.3466Z" />
    </symbol>

    <symbol viewBox="0 0 24 25" id="postgraduate-icon-arrow-2">
        <path d="M12.0005 13.9585L16.6005 9.35846L17.6543 10.4122L12.0005 16.066L6.3468 10.4122L7.40055 9.35846L12.0005 13.9585Z" />
    </symbol>

</svg>